<svg id="visual" viewBox="0 0 960 540" width="960" height="540" xmlns="http://www.w3.org/2000/svg" xmlns:xlink="http://www.w3.org/1999/xlink" version="1.1"><rect x="0" y="0" width="960" height="540" fill="#002233"></rect><path d="M127 0L135.3 12.8C143.7 25.7 160.3 51.3 177 77C193.7 102.7 210.3 128.3 206 154C201.7 179.7 176.3 205.3 161.7 231.2C147 257 143 283 159.5 308.8C176 334.7 213 360.3 234 386C255 411.7 260 437.3 254.8 463C249.7 488.7 234.3 514.3 226.7 527.2L219 540L0 540L0 527.2C0 514.3 0 488.7 0 463C0 437.3 0 411.7 0 386C0 360.3 0 334.7 0 308.8C0 283 0 257 0 231.2C0 205.3 0 179.7 0 154C0 128.3 0 102.7 0 77C0 51.3 0 25.7 0 12.8L0 0Z" fill="#0066FF" stroke-linecap="round" stroke-linejoin="miter"></path></svg>